<svg width="12" height="7" viewBox="0 0 12 7" fill="none" xmlns="http://www.w3.org/2000/svg">
<path d="M10.8354 1.86252L5.93542 6.07502C5.87708 6.12502 5.81389 6.16036 5.74583 6.18102C5.67778 6.20202 5.60486 6.21252 5.52708 6.21252C5.44931 6.21252 5.37639 6.20202 5.30833 6.18102C5.24028 6.16036 5.17708 6.12502 5.11875 6.07502L0.204166 1.86252C0.0680553 1.74586 -2.01619e-07 1.60002 -2.09268e-07 1.42502C-2.16918e-07 1.25002 0.0729164 1.10003 0.21875 0.975025C0.364583 0.850025 0.534722 0.787525 0.729167 0.787525C0.923611 0.787525 1.09375 0.850025 1.23958 0.975025L5.52708 4.65002L9.81458 0.975025C9.9507 0.858358 10.1183 0.800025 10.3174 0.800025C10.5169 0.800025 10.6896 0.862525 10.8354 0.987525C10.9813 1.11252 11.0542 1.25836 11.0542 1.42502C11.0542 1.59169 10.9813 1.73752 10.8354 1.86252Z" fill="#AEAEAE"/>
</svg>
