<svg width="14" height="13" viewBox="0 0 14 13" fill="none" xmlns="http://www.w3.org/2000/svg">
<path d="M7 10.1667C7.875 10.1667 8.61887 9.87489 9.2316 9.29133C9.84433 8.70778 10.1505 7.99955 10.15 7.16667C10.15 6.33333 9.84363 5.62489 9.2309 5.04133C8.61817 4.45778 7.87453 4.16622 7 4.16667C6.125 4.16667 5.38113 4.45844 4.7684 5.042C4.15567 5.62555 3.84953 6.33378 3.85 7.16667C3.85 8 4.15637 8.70844 4.7691 9.292C5.38183 9.87555 6.12547 10.1671 7 10.1667ZM7 8.83333C6.51 8.83333 6.09583 8.67222 5.7575 8.35C5.41917 8.02778 5.25 7.63333 5.25 7.16667C5.25 6.7 5.41917 6.30555 5.7575 5.98333C6.09583 5.66111 6.51 5.5 7 5.5C7.49 5.5 7.90417 5.66111 8.2425 5.98333C8.58083 6.30555 8.75 6.7 8.75 7.16667C8.75 7.63333 8.58083 8.02778 8.2425 8.35C7.90417 8.67222 7.49 8.83333 7 8.83333ZM1.4 12.5C1.015 12.5 0.685301 12.3693 0.410901 12.108C0.136501 11.8467 -0.000465478 11.5329 1.18846e-06 11.1667V3.16667C1.18846e-06 2.8 0.137201 2.486 0.411601 2.22467C0.686001 1.96333 1.01547 1.83289 1.4 1.83333H3.605L4.9 0.5H9.1L10.395 1.83333H12.6C12.985 1.83333 13.3147 1.964 13.5891 2.22533C13.8635 2.48667 14.0005 2.80044 14 3.16667V11.1667C14 11.5333 13.8628 11.8473 13.5884 12.1087C13.314 12.37 12.9845 12.5004 12.6 12.5H1.4ZM12.6 11.1667V3.16667H9.765L8.4875 1.83333H5.5125L4.235 3.16667H1.4V11.1667H12.6Z" fill="#AEAEAE"/>
</svg>
