<svg width="15" height="13" viewBox="0 0 15 13" fill="none" xmlns="http://www.w3.org/2000/svg">
<path fill-rule="evenodd" clip-rule="evenodd" d="M2.61728e-06 8.375C2.61728e-06 4.2395 3.3645 0.875 7.5 0.875C11.6355 0.875 15 4.2395 15 8.375C15.001 9.53253 14.731 10.6742 14.2117 11.7087C14.0842 11.9637 13.824 12.125 13.5397 12.125H1.4595C1.17525 12.125 0.915752 11.9637 0.788252 11.7087C0.268979 10.6742 -0.000969694 9.53253 2.61728e-06 8.375ZM1.5 8.375C1.49909 9.1467 1.64943 9.91111 1.9425 10.625H13.0575C13.3506 9.91111 13.5009 9.1467 13.5 8.375C13.5 5.06675 10.8082 2.375 7.5 2.375C4.19175 2.375 1.5 5.06675 1.5 8.375ZM6.32296 7.99373C6.41366 7.82605 6.54469 7.68362 6.70424 7.57928L11.2327 4.60778C11.2382 4.60438 11.2448 4.60326 11.2511 4.60466C11.2574 4.60606 11.263 4.60988 11.2665 4.61528C11.2689 4.61925 11.2701 4.62378 11.2701 4.62841C11.2701 4.63303 11.2689 4.63757 11.2665 4.64153L8.29499 9.17003C8.21232 9.29628 8.10556 9.40498 7.98083 9.48992C7.85609 9.57485 7.71583 9.63435 7.56807 9.665C7.4203 9.69566 7.26795 9.69686 7.11972 9.66856C6.97149 9.64025 6.8303 9.58298 6.70424 9.50003C6.54469 9.3957 6.41366 9.25326 6.32296 9.08559C6.23227 8.91791 6.18478 8.73029 6.18478 8.53966C6.18478 8.34903 6.23227 8.1614 6.32296 7.99373Z" fill="white"/>
</svg>
