<svg width="9" height="9" viewBox="0 0 9 9" fill="none" xmlns="http://www.w3.org/2000/svg">
<path d="M3.80291 8.83329C3.64944 8.83329 3.5207 8.78129 3.4167 8.67729C3.3127 8.57329 3.26088 8.44474 3.26125 8.29163V5.04163L0.119579 1.03329C-0.0158376 0.852737 -0.0362404 0.663154 0.0583708 0.464543C0.152982 0.265932 0.317829 0.166626 0.552912 0.166626H8.13625C8.37097 0.166626 8.53582 0.265932 8.63079 0.464543C8.72576 0.663154 8.70536 0.852737 8.56958 1.03329L5.42791 5.04163V8.29163C5.42791 8.4451 5.37591 8.57383 5.27191 8.67783C5.16791 8.78183 5.03936 8.83365 4.88625 8.83329H3.80291Z" fill="#AEAEAE"/>
</svg>
