<svg width="11" height="11" viewBox="0 0 11 11" fill="none" xmlns="http://www.w3.org/2000/svg">
<path d="M0.24584 9.98499L5.44584 4.78499L4.68751 4.01582L4.29751 4.40041C4.2474 4.45062 4.18787 4.49046 4.12234 4.51764C4.05682 4.54482 3.98657 4.55881 3.91563 4.55881C3.84469 4.55881 3.77445 4.54482 3.70892 4.51764C3.64339 4.49046 3.58387 4.45062 3.53376 4.40041L3.14917 4.01582C3.09896 3.96571 3.05912 3.90619 3.03194 3.84066C3.00476 3.77513 2.99077 3.70489 2.99077 3.63395C2.99077 3.56301 3.00476 3.49276 3.03194 3.42723C3.05912 3.36171 3.09896 3.30218 3.14917 3.25207L6.21501 0.186239C6.26512 0.136025 6.32464 0.0961866 6.39017 0.0690049C6.4557 0.0418233 6.52594 0.027832 6.59688 0.027832C6.66782 0.027832 6.73807 0.0418233 6.8036 0.0690049C6.86912 0.0961866 6.92865 0.136025 6.97876 0.186239L7.36334 0.570823C7.57459 0.782073 7.57459 1.12332 7.36334 1.33457L6.97876 1.70832L7.74792 2.48291C7.79804 2.43269 7.85756 2.39285 7.92309 2.36567C7.98861 2.33849 8.05886 2.3245 8.1298 2.3245C8.20074 2.3245 8.27098 2.33849 8.33651 2.36567C8.40204 2.39285 8.46156 2.43269 8.51167 2.48291C8.72292 2.69416 8.72292 3.04082 8.51167 3.25207L9.27542 4.01582L9.66001 3.63124C9.87126 3.41999 10.2179 3.41999 10.4292 3.63124L10.8083 4.01582C11.0196 4.22707 11.0196 4.57374 10.8083 4.78499L7.74792 7.84541C7.53667 8.05666 7.19001 8.05666 6.97876 7.84541L6.59959 7.46624C6.54816 7.41626 6.50727 7.35647 6.47935 7.29042C6.45144 7.22436 6.43705 7.15337 6.43705 7.08166C6.43705 7.00994 6.45144 6.93895 6.47935 6.8729C6.50727 6.80684 6.54816 6.74705 6.59959 6.69707L6.97876 6.31249L6.21501 5.54874L1.00959 10.7542C0.959478 10.8044 0.899955 10.8442 0.834428 10.8714C0.768901 10.8986 0.698656 10.9126 0.627715 10.9126C0.556774 10.9126 0.486529 10.8986 0.421002 10.8714C0.355474 10.8442 0.295951 10.8044 0.24584 10.7542C0.0345898 10.5429 0.0345898 10.1962 0.24584 9.98499ZM9.83334 9.29166C10.1207 9.29166 10.3962 9.40579 10.5994 9.60896C10.8025 9.81212 10.9167 10.0877 10.9167 10.375V10.9167H5.50001V10.375C5.50001 10.0877 5.61414 9.81212 5.81731 9.60896C6.02047 9.40579 6.29602 9.29166 6.58334 9.29166H9.83334Z" fill="#AEAEAE"/>
</svg>
