<svg width="16" height="5" viewBox="0 0 16 5" fill="none" xmlns="http://www.w3.org/2000/svg">
<path d="M16 2.5C16 3.05 15.804 3.521 15.412 3.913C15.02 4.305 14.5493 4.50066 14 4.5C13.45 4.5 12.979 4.304 12.587 3.912C12.195 3.52 11.9993 3.04933 12 2.5C12 1.95 12.196 1.479 12.588 1.087C12.98 0.694998 13.4507 0.499331 14 0.499997C14.55 0.499997 15.021 0.695998 15.413 1.088C15.805 1.48 16.0007 1.95066 16 2.5ZM10 2.5C10 3.05 9.804 3.521 9.412 3.913C9.02 4.305 8.54934 4.50066 8 4.5C7.45 4.5 6.979 4.304 6.587 3.912C6.195 3.52 5.99934 3.04933 6 2.5C6 1.95 6.196 1.479 6.588 1.087C6.98 0.694998 7.45067 0.499331 8 0.499998C8.55 0.499998 9.021 0.695998 9.413 1.088C9.805 1.48 10.0007 1.95066 10 2.5ZM4 2.5C4 3.05 3.804 3.521 3.412 3.913C3.02 4.305 2.54934 4.50066 2 4.5C1.45 4.5 0.979002 4.304 0.587002 3.912C0.195002 3.52 -0.000665032 3.04933 1.61037e-06 2.5C1.58633e-06 1.95 0.196001 1.479 0.588001 1.087C0.980001 0.694998 1.45067 0.499331 2 0.499998C2.55 0.499998 3.021 0.695999 3.413 1.088C3.805 1.48 4.00067 1.95066 4 2.5Z" fill="#AEAEAE"/>
</svg>
