<svg width="10" height="15" viewBox="0 0 10 15" fill="none" xmlns="http://www.w3.org/2000/svg">
<path d="M8.78571 7.13158C8.78571 9.34211 6.97143 10.8895 5 10.8895C3.02857 10.8895 1.21429 9.34211 1.21429 7.13158H0C0 9.64421 1.94286 11.7221 4.28571 12.0832V14.5H5.71429V12.0832C8.05714 11.7221 10 9.64421 10 7.13158M4.14286 2.63684C4.14286 2.15053 4.52857 1.75263 5 1.75263C5.47143 1.75263 5.85714 2.15053 5.85714 2.63684L5.85 7.20526C5.85 7.69158 5.47143 8.08947 5 8.08947C4.52857 8.08947 4.14286 7.69158 4.14286 7.20526M5 9.34211C5.56832 9.34211 6.11337 9.10921 6.51523 8.69466C6.91709 8.2801 7.14286 7.71785 7.14286 7.13158V2.71053C7.14286 2.12426 6.91709 1.562 6.51523 1.14745C6.11337 0.732894 5.56832 0.5 5 0.5C4.43168 0.5 3.88663 0.732894 3.48477 1.14745C3.08291 1.562 2.85714 2.12426 2.85714 2.71053V7.13158C2.85714 7.71785 3.08291 8.2801 3.48477 8.69466C3.88663 9.10921 4.43168 9.34211 5 9.34211Z" fill="#AEAEAE"/>
</svg>
