<svg width="15" height="13" viewBox="0 0 15 13" fill="none" xmlns="http://www.w3.org/2000/svg">
<path d="M11.7498 10.75V12.1666H1.83317C1.45745 12.1666 1.09711 12.0174 0.831436 11.7517C0.565759 11.486 0.416504 11.1257 0.416504 10.75V3.66665H1.83317V10.75M14.5832 2.24998V7.91665C14.5832 8.29237 14.4339 8.6527 14.1682 8.91838C13.9026 9.18406 13.5422 9.33331 13.1665 9.33331H4.6665C4.29078 9.33331 3.93045 9.18406 3.66477 8.91838C3.39909 8.6527 3.24984 8.29237 3.24984 7.91665V2.24998C3.24984 1.87426 3.39909 1.51392 3.66477 1.24824C3.93045 0.982568 4.29078 0.833313 4.6665 0.833313H13.1665C13.5422 0.833313 13.9026 0.982568 14.1682 1.24824C14.4339 1.51392 14.5832 1.87426 14.5832 2.24998ZM13.1665 2.24998H4.6665V7.91665H13.1665V2.24998Z" fill="#AEAEAE"/>
</svg>
