<svg width="14" height="13" viewBox="0 0 14 13" fill="none" xmlns="http://www.w3.org/2000/svg">
<path d="M0 1.36842C0 1.00549 0.1475 0.65743 0.41005 0.400801C0.672601 0.144172 1.0287 0 1.4 0H12.6C12.9713 0 13.3274 0.144172 13.5899 0.400801C13.8525 0.65743 14 1.00549 14 1.36842V8.89474C14 9.25766 13.8525 9.60573 13.5899 9.86236C13.3274 10.119 12.9713 10.2632 12.6 10.2632H7.7V11.6316H9.8C9.98565 11.6316 10.1637 11.7037 10.295 11.832C10.4263 11.9603 10.5 12.1343 10.5 12.3158C10.5 12.4973 10.4263 12.6713 10.295 12.7996C10.1637 12.9279 9.98565 13 9.8 13H4.2C4.01435 13 3.8363 12.9279 3.70503 12.7996C3.57375 12.6713 3.5 12.4973 3.5 12.3158C3.5 12.1343 3.57375 11.9603 3.70503 11.832C3.8363 11.7037 4.01435 11.6316 4.2 11.6316H6.3V10.2632H1.4C1.0287 10.2632 0.672601 10.119 0.41005 9.86236C0.1475 9.60573 0 9.25766 0 8.89474V1.36842ZM12.6 8.89474V1.36842H1.4V8.89474H12.6Z" fill="#AEAEAE"/>
</svg>
