<svg width="13" height="15" viewBox="0 0 13 15" fill="none" xmlns="http://www.w3.org/2000/svg">
<path d="M4.33333 1.42857V0H8.66667V1.42857H4.33333ZM5.77778 9.28571H7.22222V5H5.77778V9.28571ZM6.5 15C5.60926 15 4.76956 14.8302 3.98089 14.4907C3.19222 14.1512 2.50322 13.69 1.91389 13.1071C1.32408 12.5238 0.857519 11.8421 0.514223 11.0621C0.170927 10.2821 -0.00048047 9.4519 1.01152e-06 8.57143C1.01152e-06 7.69048 0.171649 6.86 0.514945 6.08C0.858242 5.3 1.32456 4.61857 1.91389 4.03571C2.5037 3.45238 3.19294 2.99095 3.98161 2.65143C4.77028 2.3119 5.60974 2.14238 6.5 2.14286C7.2463 2.14286 7.9625 2.2619 8.64861 2.5C9.33472 2.7381 9.9787 3.08333 10.5806 3.53571L11.5917 2.53571L12.6028 3.53571L11.5917 4.53571C12.0491 5.13095 12.3981 5.76786 12.6389 6.44643C12.8796 7.125 13 7.83333 13 8.57143C13 9.45238 12.8284 10.2829 12.4851 11.0629C12.1418 11.8429 11.6754 12.5243 11.0861 13.1071C10.4963 13.6905 9.80706 14.1519 9.01839 14.4914C8.22972 14.831 7.39026 15.0005 6.5 15ZM6.5 13.5714C7.8963 13.5714 9.08796 13.0833 10.075 12.1071C11.062 11.131 11.5556 9.95238 11.5556 8.57143C11.5556 7.19048 11.062 6.0119 10.075 5.03571C9.08796 4.05952 7.8963 3.57143 6.5 3.57143C5.1037 3.57143 3.91204 4.05952 2.925 5.03571C1.93796 6.0119 1.44445 7.19048 1.44445 8.57143C1.44445 9.95238 1.93796 11.131 2.925 12.1071C3.91204 13.0833 5.1037 13.5714 6.5 13.5714Z" fill="white"/>
</svg>
